Normalized EMG Linear Envelopes
nRows=21
nColumns=17

endheader
time	        VM	        VL	        RF	       GRA	        TA	   ADDLONG	   SEMIMEM	      BFLH	        GM	        GL	       TFL	   GLUTMAX	   GLUTMED	      PIRI	    OBTINT	        QF	
2.16	  0.514219	  0.450919	  0.082940	  0.577483	  0.657653	  0.007620	  0.760249	  0.912690	  0.510727	  0.211739	  0.242369	  0.670203	  0.527645	  0.273313	  0.043397	  0.098818	
2.1605	  0.519009	  0.454769	  0.083741	  0.575740	  0.655767	  0.006877	  0.758477	  0.914643	  0.513369	  0.212806	  0.242218	  0.672860	  0.526125	  0.274269	  0.043301	  0.098404	
2.161	  0.523825	  0.458640	  0.084545	  0.573972	  0.653795	  0.006164	  0.756664	  0.916503	  0.515993	  0.213880	  0.242049	  0.675493	  0.524569	  0.275211	  0.043212	  0.097995	
2.1615	  0.528663	  0.462530	  0.085350	  0.572180	  0.651739	  0.005482	  0.754810	  0.918267	  0.518599	  0.214962	  0.241863	  0.678102	  0.522978	  0.276141	  0.043131	  0.097588	
2.162	  0.533522	  0.466438	  0.086157	  0.570361	  0.649600	  0.004830	  0.752913	  0.919935	  0.521187	  0.216052	  0.241663	  0.680687	  0.521351	  0.277056	  0.043057	  0.097185	
2.1625	  0.538399	  0.470363	  0.086966	  0.568514	  0.647379	  0.004210	  0.750975	  0.921505	  0.523757	  0.217152	  0.241450	  0.683248	  0.519691	  0.277959	  0.042992	  0.096786	
2.163	  0.543291	  0.474303	  0.087777	  0.566639	  0.645078	  0.003619	  0.748994	  0.922976	  0.526308	  0.218262	  0.241226	  0.685787	  0.517997	  0.278847	  0.042934	  0.096390	
2.1635	  0.548195	  0.478258	  0.088590	  0.564735	  0.642697	  0.003060	  0.746971	  0.924346	  0.528841	  0.219383	  0.240994	  0.688301	  0.516269	  0.279722	  0.042884	  0.095999	
2.164	  0.553109	  0.482226	  0.089404	  0.562800	  0.640238	  0.002531	  0.744903	  0.925616	  0.531355	  0.220517	  0.240755	  0.690792	  0.514509	  0.280583	  0.042842	  0.095612	
2.1645	  0.558029	  0.486206	  0.090221	  0.560834	  0.637702	  0.002032	  0.742792	  0.926782	  0.533851	  0.221663	  0.240511	  0.693260	  0.512717	  0.281431	  0.042807	  0.095229	
2.165	  0.562951	  0.490196	  0.091039	  0.558835	  0.635091	  0.001565	  0.740637	  0.927843	  0.536330	  0.222823	  0.240265	  0.695704	  0.510892	  0.282265	  0.042780	  0.094852	
2.1655	  0.567874	  0.494196	  0.091858	  0.556802	  0.632406	  0.001128	  0.738438	  0.928799	  0.538792	  0.223998	  0.240017	  0.698124	  0.509035	  0.283086	  0.042760	  0.094479	
2.166	  0.572793	  0.498202	  0.092680	  0.554735	  0.629649	  0.000722	  0.736196	  0.929646	  0.541237	  0.225187	  0.239770	  0.700520	  0.507146	  0.283894	  0.042748	  0.094112	
2.1665	  0.577705	  0.502215	  0.093503	  0.552633	  0.626822	  0.000347	  0.733910	  0.930383	  0.543666	  0.226393	  0.239525	  0.702893	  0.505226	  0.284689	  0.042743	  0.093750	
2.167	  0.582606	  0.506233	  0.094328	  0.550495	  0.623926	  0.000002	  0.731582	  0.931009	  0.546080	  0.227615	  0.239284	  0.705242	  0.503274	  0.285471	  0.042745	  0.093394	
2.1675	  0.587494	  0.510255	  0.095155	  0.548320	  0.620964	  0.000000	  0.729210	  0.931522	  0.548480	  0.228855	  0.239049	  0.707567	  0.501290	  0.286240	  0.042755	  0.093044	
2.168	  0.592363	  0.514279	  0.095983	  0.546109	  0.617937	  0.000000	  0.726796	  0.931920	  0.550866	  0.230113	  0.238821	  0.709869	  0.499275	  0.286997	  0.042771	  0.092700	
2.1685	  0.597210	  0.518304	  0.096814	  0.543860	  0.614847	  0.000000	  0.724339	  0.932201	  0.553239	  0.231389	  0.238601	  0.712149	  0.497230	  0.287741	  0.042795	  0.092363	
2.169	  0.602032	  0.522330	  0.097646	  0.541574	  0.611696	  0.000000	  0.721838	  0.932365	  0.555599	  0.232685	  0.238391	  0.714406	  0.495156	  0.288473	  0.042826	  0.092032	
2.1695	  0.606824	  0.526353	  0.098479	  0.539251	  0.608484	  0.000000	  0.719295	  0.932409	  0.557948	  0.234000	  0.238193	  0.716640	  0.493054	  0.289191	  0.042863	  0.091707	
2.17	  0.611584	  0.530374	  0.099314	  0.536890	  0.605215	  0.000000	  0.716709	  0.932333	  0.560286	  0.235336	  0.238007	  0.718852	  0.490924	  0.289898	  0.042908	  0.091390	
